<svg width="90" height="90" viewBox="0 0 90 90" fill="none" xmlns="http://www.w3.org/2000/svg">
<path d="M18 15C16.4087 15 14.8826 15.6321 13.7574 16.7574C12.6321 17.8826 12 19.4087 12 21C12 22.5913 12.6321 24.1174 13.7574 25.2426C14.8826 26.3679 16.4087 27 18 27C19.5913 27 21.1174 26.3679 22.2426 25.2426C23.3679 24.1174 24 22.5913 24 21C24 19.4087 23.3679 17.8826 22.2426 16.7574C21.1174 15.6321 19.5913 15 18 15ZM36 18C35.6025 17.9944 35.2078 18.0678 34.8389 18.2161C34.47 18.3643 34.1342 18.5844 33.8511 18.8635C33.568 19.1427 33.3432 19.4753 33.1897 19.842C33.0363 20.2088 32.9573 20.6024 32.9573 21C32.9573 21.3976 33.0363 21.7912 33.1897 22.158C33.3432 22.5247 33.568 22.8573 33.8511 23.1365C34.1342 23.4156 34.47 23.6357 34.8389 23.7839C35.2078 23.9322 35.6025 24.0056 36 24H75C75.3975 24.0056 75.7922 23.9322 76.1611 23.7839C76.53 23.6357 76.8658 23.4156 77.1489 23.1365C77.432 22.8573 77.6568 22.5247 77.8103 22.158C77.9637 21.7912 78.0427 21.3976 78.0427 21C78.0427 20.6024 77.9637 20.2088 77.8103 19.842C77.6568 19.4753 77.432 19.1427 77.1489 18.8635C76.8658 18.5844 76.53 18.3643 76.1611 18.2161C75.7922 18.0678 75.3975 17.9944 75 18H36ZM18 39C16.4087 39 14.8826 39.6321 13.7574 40.7574C12.6321 41.8826 12 43.4087 12 45C12 46.5913 12.6321 48.1174 13.7574 49.2426C14.8826 50.3679 16.4087 51 18 51C19.5913 51 21.1174 50.3679 22.2426 49.2426C23.3679 48.1174 24 46.5913 24 45C24 43.4087 23.3679 41.8826 22.2426 40.7574C21.1174 39.6321 19.5913 39 18 39ZM36 42C35.6025 41.9944 35.2078 42.0678 34.8389 42.2161C34.47 42.3643 34.1342 42.5844 33.8511 42.8635C33.568 43.1427 33.3432 43.4753 33.1897 43.842C33.0363 44.2088 32.9573 44.6024 32.9573 45C32.9573 45.3976 33.0363 45.7912 33.1897 46.158C33.3432 46.5247 33.568 46.8573 33.8511 47.1365C34.1342 47.4156 34.47 47.6357 34.8389 47.7839C35.2078 47.9322 35.6025 48.0056 36 48H75C75.3975 48.0056 75.7922 47.9322 76.1611 47.7839C76.53 47.6357 76.8658 47.4156 77.1489 47.1365C77.432 46.8573 77.6568 46.5247 77.8103 46.158C77.9637 45.7912 78.0427 45.3976 78.0427 45C78.0427 44.6024 77.9637 44.2088 77.8103 43.842C77.6568 43.4753 77.432 43.1427 77.1489 42.8635C76.8658 42.5844 76.53 42.3643 76.1611 42.2161C75.7922 42.0678 75.3975 41.9944 75 42H36ZM18 63C16.4087 63 14.8826 63.6321 13.7574 64.7574C12.6321 65.8826 12 67.4087 12 69C12 70.5913 12.6321 72.1174 13.7574 73.2426C14.8826 74.3679 16.4087 75 18 75C19.5913 75 21.1174 74.3679 22.2426 73.2426C23.3679 72.1174 24 70.5913 24 69C24 67.4087 23.3679 65.8826 22.2426 64.7574C21.1174 63.6321 19.5913 63 18 63ZM36 66C35.6025 65.9944 35.2078 66.0678 34.8389 66.2161C34.47 66.3643 34.1342 66.5844 33.8511 66.8635C33.568 67.1427 33.3432 67.4753 33.1897 67.842C33.0363 68.2088 32.9573 68.6024 32.9573 69C32.9573 69.3976 33.0363 69.7912 33.1897 70.158C33.3432 70.5247 33.568 70.8573 33.8511 71.1365C34.1342 71.4156 34.47 71.6357 34.8389 71.7839C35.2078 71.9322 35.6025 72.0056 36 72H75C75.3975 72.0056 75.7922 71.9322 76.1611 71.7839C76.53 71.6357 76.8658 71.4156 77.1489 71.1365C77.432 70.8573 77.6568 70.5247 77.8103 70.158C77.9637 69.7912 78.0427 69.3976 78.0427 69C78.0427 68.6024 77.9637 68.2088 77.8103 67.842C77.6568 67.4753 77.432 67.1427 77.1489 66.8635C76.8658 66.5844 76.53 66.3643 76.1611 66.2161C75.7922 66.0678 75.3975 65.9944 75 66H36Z" fill="black"/>
</svg>
