<svg width="90" height="90" viewBox="0 0 90 90" fill="none" xmlns="http://www.w3.org/2000/svg">
<path d="M78 12H12C8.685 12 6 14.685 6 18V72C6 75.315 8.685 78 12 78H78C81.315 78 84 75.315 84 72V18C84 14.685 81.315 12 78 12ZM21 72H12V63H21V72ZM21 57H12V48H21V57ZM21 42H12V33H21V42ZM21 27H12V18H21V27ZM58.305 47.673L37.383 59.619C36.963 59.841 36.507 60 36 60C34.344 60 33 58.656 33 57V45V33C33 31.344 34.344 30 36 30C36.507 30 36.963 30.159 37.383 30.381L58.305 42.327C59.301 42.816 60 43.818 60 45C60 46.182 59.301 47.184 58.305 47.673ZM78 72H69V63H78V72ZM78 57H69V48H78V57ZM78 42H69V33H78V42ZM78 27H69V18H78V27Z" fill="black"/>
</svg>
