<svg width="90" height="90" viewBox="0 0 90 90" fill="none" xmlns="http://www.w3.org/2000/svg">
<path d="M12 15C8.685 15 6 17.685 6 21V69C6 72.315 8.685 75 12 75H78C81.315 75 84 72.315 84 69V21C84 17.685 81.315 15 78 15H12ZM69 24C72.315 24 75 26.685 75 30C75 33.315 72.315 36 69 36C65.685 36 63 33.315 63 30C63 26.685 65.685 24 69 24ZM27 39.0059C28.8577 39.0059 30.7153 39.7153 32.1328 41.1328L41.918 50.918L45 54L48.4688 57.4688C49.7347 58.7347 51.7789 58.723 53.0449 57.457C54.3139 56.191 54.3139 54.1323 53.0449 52.8633L49.5879 49.4121L51.8672 47.1328C54.7022 44.2978 59.2978 44.2978 62.1328 47.1328L75 60V66H15V48L21.8672 41.1328C23.2847 39.7153 25.1423 39.0059 27 39.0059Z" fill="black"/>
</svg>
