<svg width="90" height="90" viewBox="0 0 90 90" fill="none" xmlns="http://www.w3.org/2000/svg">
<path d="M32.9531 11.959C32.8078 11.9622 32.6629 11.9759 32.5195 12H18C14.7208 12 12 14.7208 12 18V29.4961C11.9465 29.8201 11.9465 30.1507 12 30.4746V44.4961C11.9465 44.8201 11.9465 45.1507 12 45.4746V59.4961C11.9465 59.8201 11.9465 60.1507 12 60.4746V72C12 75.2792 14.7208 78 18 78H32.4961C32.8201 78.0536 33.1506 78.0536 33.4746 78H72C75.2792 78 78 75.2792 78 72V60.5039C78.0535 60.18 78.0535 59.8494 78 59.5254V45.5039C78.0535 45.18 78.0535 44.8494 78 44.5254V30.5039C78.0535 30.18 78.0535 29.8494 78 29.5254V18C78 14.7208 75.2792 12 72 12H33.4629C33.2944 11.9719 33.1239 11.9582 32.9531 11.959ZM18 18H30V27H18V18ZM36 18H72V27H36V18ZM18 33H30V42H18V33ZM36 33H72V42H36V33ZM18 48H30V57H18V48ZM36 48H72V57H36V48ZM18 63H30V72H18V63ZM36 63H72V72H36V63Z" fill="black"/>
</svg>
