<svg width="90" height="90" viewBox="0 0 90 90" fill="none" xmlns="http://www.w3.org/2000/svg">
<path d="M45 9C33.402 9 24 18.402 24 30C24 40.5759 31.8281 49.2997 42 50.7598V78C41.9944 78.3975 42.0678 78.7922 42.2161 79.1611C42.3643 79.53 42.5844 79.8658 42.8635 80.1489C43.1427 80.432 43.4753 80.6568 43.842 80.8103C44.2088 80.9637 44.6024 81.0427 45 81.0427C45.3976 81.0427 45.7912 80.9637 46.158 80.8103C46.5247 80.6568 46.8573 80.432 47.1365 80.1489C47.4156 79.8658 47.6357 79.53 47.7839 79.1611C47.9322 78.7922 48.0056 78.3975 48 78V50.7598C58.1719 49.2997 66 40.5759 66 30C66 18.402 56.598 9 45 9ZM45 15C48.729 15 51.75 17.016 51.75 19.5C51.75 21.984 48.729 24 45 24C41.271 24 38.25 21.984 38.25 19.5C38.25 17.016 41.271 15 45 15Z" fill="black"/>
</svg>
