<svg width="90" height="90" viewBox="0 0 90 90" fill="none" xmlns="http://www.w3.org/2000/svg">
<path d="M12 12C8.685 12 6 14.685 6 18V27V30V78H84V30V27V18C84 14.685 81.315 12 78 12H12ZM12 30H78V72H12V30ZM24 39C23.2044 39 22.4413 39.3161 21.8787 39.8787C21.3161 40.4413 21 41.2044 21 42C21 42.7956 21.3161 43.5587 21.8787 44.1213C22.4413 44.6839 23.2044 45 24 45C24.7956 45 25.5587 44.6839 26.1213 44.1213C26.6839 43.5587 27 42.7956 27 42C27 41.2044 26.6839 40.4413 26.1213 39.8787C25.5587 39.3161 24.7956 39 24 39ZM36 39C34.344 39 33 40.344 33 42C33 43.656 34.344 45 36 45H63C64.656 45 66 43.656 66 42C66 40.344 64.656 39 63 39H36ZM24 51C23.2044 51 22.4413 51.3161 21.8787 51.8787C21.3161 52.4413 21 53.2044 21 54C21 54.7956 21.3161 55.5587 21.8787 56.1213C22.4413 56.6839 23.2044 57 24 57C24.7956 57 25.5587 56.6839 26.1213 56.1213C26.6839 55.5587 27 54.7956 27 54C27 53.2044 26.6839 52.4413 26.1213 51.8787C25.5587 51.3161 24.7956 51 24 51ZM36 51C34.344 51 33 52.344 33 54C33 55.656 34.344 57 36 57H63C64.656 57 66 55.656 66 54C66 52.344 64.656 51 63 51H36Z" fill="black"/>
</svg>
