<svg width="90" height="90" viewBox="0 0 90 90" fill="none" xmlns="http://www.w3.org/2000/svg">
<path d="M18 15C16.344 15 15 16.344 15 18V30C15 31.656 16.344 33 18 33H30C31.656 33 33 31.656 33 30V18C33 16.344 31.656 15 30 15H18ZM39 15C37.344 15 36 16.344 36 18V30C36 31.656 37.344 33 39 33H51C52.656 33 54 31.656 54 30V18C54 16.344 52.656 15 51 15H39ZM60 15C58.344 15 57 16.344 57 18V30C57 31.656 58.344 33 60 33H72C73.656 33 75 31.656 75 30V18C75 16.344 73.656 15 72 15H60ZM18 36C16.344 36 15 37.344 15 39V51C15 52.656 16.344 54 18 54H30C31.656 54 33 52.656 33 51V39C33 37.344 31.656 36 30 36H18ZM39 36C37.344 36 36 37.344 36 39V51C36 52.656 37.344 54 39 54H51C52.656 54 54 52.656 54 51V39C54 37.344 52.656 36 51 36H39ZM60 36C58.344 36 57 37.344 57 39V51C57 52.656 58.344 54 60 54H72C73.656 54 75 52.656 75 51V39C75 37.344 73.656 36 72 36H60ZM18 57C16.344 57 15 58.344 15 60V72C15 73.656 16.344 75 18 75H30C31.656 75 33 73.656 33 72V60C33 58.344 31.656 57 30 57H18ZM39 57C37.344 57 36 58.344 36 60V72C36 73.656 37.344 75 39 75H51C52.656 75 54 73.656 54 72V60C54 58.344 52.656 57 51 57H39ZM60 57C58.344 57 57 58.344 57 60V72C57 73.656 58.344 75 60 75H72C73.656 75 75 73.656 75 72V60C75 58.344 73.656 57 72 57H60Z" fill="black"/>
</svg>
