<svg width="90" height="90" viewBox="0 0 90 90" fill="none" xmlns="http://www.w3.org/2000/svg">
<path d="M12 6C8.72081 6 6 8.72081 6 12V78C6 81.2792 8.72081 84 12 84H36C39.2792 84 42 81.2792 42 78V12C42 8.72081 39.2792 6 36 6H12ZM54 6C50.7208 6 48 8.72081 48 12V78C48 81.2792 50.7208 84 54 84H78C81.2792 84 84 81.2792 84 78V12C84 8.72081 81.2792 6 78 6H54ZM12 12H36V78H12V12ZM54 12H78V78H54V12ZM18 30C17.2044 30 16.4413 30.3161 15.8787 30.8787C15.3161 31.4413 15 32.2044 15 33C15 33.7956 15.3161 34.5587 15.8787 35.1213C16.4413 35.6839 17.2044 36 18 36C18.7956 36 19.5587 35.6839 20.1213 35.1213C20.6839 34.5587 21 33.7956 21 33C21 32.2044 20.6839 31.4413 20.1213 30.8787C19.5587 30.3161 18.7956 30 18 30ZM30 30C29.2044 30 28.4413 30.3161 27.8787 30.8787C27.3161 31.4413 27 32.2044 27 33C27 33.7956 27.3161 34.5587 27.8787 35.1213C28.4413 35.6839 29.2044 36 30 36C30.7956 36 31.5587 35.6839 32.1213 35.1213C32.6839 34.5587 33 33.7956 33 33C33 32.2044 32.6839 31.4413 32.1213 30.8787C31.5587 30.3161 30.7956 30 30 30ZM60 30C59.2044 30 58.4413 30.3161 57.8787 30.8787C57.3161 31.4413 57 32.2044 57 33C57 33.7956 57.3161 34.5587 57.8787 35.1213C58.4413 35.6839 59.2044 36 60 36C60.7956 36 61.5587 35.6839 62.1213 35.1213C62.6839 34.5587 63 33.7956 63 33C63 32.2044 62.6839 31.4413 62.1213 30.8787C61.5587 30.3161 60.7956 30 60 30ZM72 30C71.2044 30 70.4413 30.3161 69.8787 30.8787C69.3161 31.4413 69 32.2044 69 33C69 33.7956 69.3161 34.5587 69.8787 35.1213C70.4413 35.6839 71.2044 36 72 36C72.7956 36 73.5587 35.6839 74.1213 35.1213C74.6839 34.5587 75 33.7956 75 33C75 32.2044 74.6839 31.4413 74.1213 30.8787C73.5587 30.3161 72.7956 30 72 30ZM18 54C17.2044 54 16.4413 54.3161 15.8787 54.8787C15.3161 55.4413 15 56.2044 15 57C15 57.7956 15.3161 58.5587 15.8787 59.1213C16.4413 59.6839 17.2044 60 18 60C18.7956 60 19.5587 59.6839 20.1213 59.1213C20.6839 58.5587 21 57.7956 21 57C21 56.2044 20.6839 55.4413 20.1213 54.8787C19.5587 54.3161 18.7956 54 18 54ZM30 54C29.2044 54 28.4413 54.3161 27.8787 54.8787C27.3161 55.4413 27 56.2044 27 57C27 57.7956 27.3161 58.5587 27.8787 59.1213C28.4413 59.6839 29.2044 60 30 60C30.7956 60 31.5587 59.6839 32.1213 59.1213C32.6839 58.5587 33 57.7956 33 57C33 56.2044 32.6839 55.4413 32.1213 54.8787C31.5587 54.3161 30.7956 54 30 54ZM60 54C59.2044 54 58.4413 54.3161 57.8787 54.8787C57.3161 55.4413 57 56.2044 57 57C57 57.7956 57.3161 58.5587 57.8787 59.1213C58.4413 59.6839 59.2044 60 60 60C60.7956 60 61.5587 59.6839 62.1213 59.1213C62.6839 58.5587 63 57.7956 63 57C63 56.2044 62.6839 55.4413 62.1213 54.8787C61.5587 54.3161 60.7956 54 60 54ZM72 54C71.2044 54 70.4413 54.3161 69.8787 54.8787C69.3161 55.4413 69 56.2044 69 57C69 57.7956 69.3161 58.5587 69.8787 59.1213C70.4413 59.6839 71.2044 60 72 60C72.7956 60 73.5587 59.6839 74.1213 59.1213C74.6839 58.5587 75 57.7956 75 57C75 56.2044 74.6839 55.4413 74.1213 54.8787C73.5587 54.3161 72.7956 54 72 54Z" fill="black"/>
</svg>
