<svg width="90" height="90" viewBox="0 0 90 90" fill="none" xmlns="http://www.w3.org/2000/svg">
<path d="M14.9531 14.9589C14.1585 14.9713 13.4013 15.2985 12.8476 15.8686C12.294 16.4387 11.9891 17.2052 12 17.9999V71.9999C11.9944 72.3974 12.0678 72.7921 12.2161 73.161C12.3643 73.5299 12.5844 73.8657 12.8635 74.1488C13.1426 74.4319 13.4753 74.6567 13.842 74.8101C14.2088 74.9636 14.6024 75.0426 15 75.0426C15.3976 75.0426 15.7912 74.9636 16.158 74.8101C16.5247 74.6567 16.8573 74.4319 17.1365 74.1488C17.4156 73.8657 17.6357 73.5299 17.7839 73.161C17.9322 72.7921 18.0056 72.3974 18 71.9999V45.0468V17.9999C18.0055 17.5985 17.9304 17.2001 17.7791 16.8283C17.6279 16.4565 17.4036 16.1188 17.1195 15.8352C16.8354 15.5517 16.4972 15.328 16.1251 15.1775C15.753 15.0269 15.3545 14.9526 14.9531 14.9589ZM18 45.0468C18.0124 45.8261 18.3276 46.57 18.8789 47.121L24.8789 53.121C25.1553 53.4089 25.4864 53.6388 25.8528 53.7971C26.2192 53.9555 26.6135 54.0391 27.0126 54.0432C27.4118 54.0472 27.8077 53.9716 28.1772 53.8208C28.5467 53.6699 28.8825 53.4468 29.1647 53.1646C29.4469 52.8823 29.67 52.5466 29.8209 52.1771C29.9717 51.8076 30.0474 51.4116 30.0433 51.0125C30.0392 50.6134 29.9556 50.2191 29.7972 49.8527C29.6389 49.4863 29.409 49.1552 29.1211 48.8788L28.2422 47.9999H61.7578L60.8789 48.8788C60.591 49.1552 60.3611 49.4863 60.2027 49.8527C60.0444 50.2191 59.9607 50.6134 59.9567 51.0125C59.9526 51.4116 60.0282 51.8076 60.1791 52.1771C60.33 52.5466 60.553 52.8824 60.8353 53.1646C61.1175 53.4468 61.4532 53.6699 61.8228 53.8208C62.1923 53.9716 62.5882 54.0473 62.9873 54.0432C63.3865 54.0391 63.7808 53.9555 64.1472 53.7971C64.5135 53.6388 64.8447 53.4089 65.1211 53.121L71.1211 47.121C71.4053 46.8369 71.6296 46.4986 71.7805 46.1262C71.9315 45.7538 72.0061 45.3548 72 44.953C71.9876 44.1737 71.6724 43.4298 71.1211 42.8788L65.1211 36.8788C64.8415 36.5914 64.5072 36.363 64.1378 36.207C63.7685 36.051 63.3716 35.9706 62.9707 35.9706C62.3739 35.9707 61.7907 36.1489 61.2957 36.4822C60.8006 36.8156 60.4163 37.289 60.1917 37.8419C59.9671 38.3948 59.9126 39.0022 60.035 39.5863C60.1574 40.1704 60.4512 40.7047 60.8789 41.121L61.7578 41.9999H28.2422L29.1211 41.121C29.5546 40.6996 29.8507 40.1571 29.9706 39.5645C30.0904 38.9719 30.0285 38.357 29.7929 37.8002C29.5573 37.2435 29.1589 36.7709 28.6501 36.4444C28.1413 36.1179 27.5457 35.9528 26.9414 35.9706C26.162 35.9938 25.4223 36.3195 24.8789 36.8788L18.8789 42.8788C18.5947 43.1629 18.3704 43.5012 18.2194 43.8736C18.0685 44.246 17.9938 44.6449 18 45.0468ZM72 44.953V71.9999C71.9944 72.3974 72.0678 72.7921 72.2161 73.161C72.3643 73.5299 72.5844 73.8657 72.8635 74.1488C73.1426 74.4319 73.4753 74.6567 73.842 74.8101C74.2088 74.9636 74.6024 75.0426 75 75.0426C75.3976 75.0426 75.7912 74.9636 76.158 74.8101C76.5247 74.6567 76.8573 74.4319 77.1365 74.1488C77.4156 73.8657 77.6357 73.5299 77.7839 73.161C77.9322 72.7921 78.0056 72.3974 78 71.9999V17.9999C78.0055 17.5985 77.9304 17.2001 77.7791 16.8283C77.6279 16.4565 77.4036 16.1188 77.1195 15.8352C76.8354 15.5517 76.4972 15.328 76.1251 15.1775C75.753 15.0269 75.3545 14.9526 74.9531 14.9589C74.1585 14.9713 73.4013 15.2985 72.8476 15.8686C72.294 16.4387 71.9891 17.2052 72 17.9999V44.953ZM27 14.9999C26.2043 14.9999 25.4413 15.3159 24.8787 15.8786C24.3161 16.4412 24 17.2042 24 17.9999C24 18.7955 24.3161 19.5586 24.8787 20.1212C25.4413 20.6838 26.2043 20.9999 27 20.9999C27.7956 20.9999 28.5587 20.6838 29.1213 20.1212C29.6839 19.5586 30 18.7955 30 17.9999C30 17.2042 29.6839 16.4412 29.1213 15.8786C28.5587 15.3159 27.7956 14.9999 27 14.9999ZM39 14.9999C38.2043 14.9999 37.4413 15.3159 36.8787 15.8786C36.3161 16.4412 36 17.2042 36 17.9999C36 18.7955 36.3161 19.5586 36.8787 20.1212C37.4413 20.6838 38.2043 20.9999 39 20.9999C39.7956 20.9999 40.5587 20.6838 41.1213 20.1212C41.6839 19.5586 42 18.7955 42 17.9999C42 17.2042 41.6839 16.4412 41.1213 15.8786C40.5587 15.3159 39.7956 14.9999 39 14.9999ZM51 14.9999C50.2043 14.9999 49.4413 15.3159 48.8787 15.8786C48.3161 16.4412 48 17.2042 48 17.9999C48 18.7955 48.3161 19.5586 48.8787 20.1212C49.4413 20.6838 50.2043 20.9999 51 20.9999C51.7956 20.9999 52.5587 20.6838 53.1213 20.1212C53.6839 19.5586 54 18.7955 54 17.9999C54 17.2042 53.6839 16.4412 53.1213 15.8786C52.5587 15.3159 51.7956 14.9999 51 14.9999ZM63 14.9999C62.2043 14.9999 61.4413 15.3159 60.8787 15.8786C60.3161 16.4412 60 17.2042 60 17.9999C60 18.7955 60.3161 19.5586 60.8787 20.1212C61.4413 20.6838 62.2043 20.9999 63 20.9999C63.7956 20.9999 64.5587 20.6838 65.1213 20.1212C65.6839 19.5586 66 18.7955 66 17.9999C66 17.2042 65.6839 16.4412 65.1213 15.8786C64.5587 15.3159 63.7956 14.9999 63 14.9999ZM27 68.9999C26.2043 68.9999 25.4413 69.3159 24.8787 69.8786C24.3161 70.4412 24 71.2042 24 71.9999C24 72.7955 24.3161 73.5586 24.8787 74.1212C25.4413 74.6838 26.2043 74.9999 27 74.9999C27.7956 74.9999 28.5587 74.6838 29.1213 74.1212C29.6839 73.5586 30 72.7955 30 71.9999C30 71.2042 29.6839 70.4412 29.1213 69.8786C28.5587 69.3159 27.7956 68.9999 27 68.9999ZM39 68.9999C38.2043 68.9999 37.4413 69.3159 36.8787 69.8786C36.3161 70.4412 36 71.2042 36 71.9999C36 72.7955 36.3161 73.5586 36.8787 74.1212C37.4413 74.6838 38.2043 74.9999 39 74.9999C39.7956 74.9999 40.5587 74.6838 41.1213 74.1212C41.6839 73.5586 42 72.7955 42 71.9999C42 71.2042 41.6839 70.4412 41.1213 69.8786C40.5587 69.3159 39.7956 68.9999 39 68.9999ZM51 68.9999C50.2043 68.9999 49.4413 69.3159 48.8787 69.8786C48.3161 70.4412 48 71.2042 48 71.9999C48 72.7955 48.3161 73.5586 48.8787 74.1212C49.4413 74.6838 50.2043 74.9999 51 74.9999C51.7956 74.9999 52.5587 74.6838 53.1213 74.1212C53.6839 73.5586 54 72.7955 54 71.9999C54 71.2042 53.6839 70.4412 53.1213 69.8786C52.5587 69.3159 51.7956 68.9999 51 68.9999ZM63 68.9999C62.2043 68.9999 61.4413 69.3159 60.8787 69.8786C60.3161 70.4412 60 71.2042 60 71.9999C60 72.7955 60.3161 73.5586 60.8787 74.1212C61.4413 74.6838 62.2043 74.9999 63 74.9999C63.7956 74.9999 64.5587 74.6838 65.1213 74.1212C65.6839 73.5586 66 72.7955 66 71.9999C66 71.2042 65.6839 70.4412 65.1213 69.8786C64.5587 69.3159 63.7956 68.9999 63 68.9999Z" fill="black"/>
</svg>
